<svg id="Слой_1" data-name="Слой 1" xmlns="http://www.w3.org/2000/svg" viewBox="0 0 711.61 165.66"><defs><style>.cls-1{fill:#fff;}</style></defs><title>logo kononova_2</title><path class="cls-1" d="M368.39,58.8h29.39V64H373.94V78.61H396.2v5.15H373.94v16.64h25v5.15H368.39Z" transform="translate(-44 -40)"/><path class="cls-1" d="M407.56,58.8h5.55V79h.79L435.16,58.8h8L420,80.13l24.24,25.43h-8.12L413.9,81.78h-.79v23.78h-5.55Z" transform="translate(-44 -40)"/><path class="cls-1" d="M464.35,58.8h5.22l19.88,46.76H483l-4.75-11.49H454.84L450,105.56h-6.27Zm2.51,7.13h-.13l-9.71,23h19.09Z" transform="translate(-44 -40)"/><path class="cls-1" d="M521,64H505.5v41.61H500V64H484.5V58.8H521Z" transform="translate(-44 -40)"/><path class="cls-1" d="M527.49,58.8h29.39V64H533V78.61H555.3v5.15H533v16.64h25v5.15H527.49Z" transform="translate(-44 -40)"/><path class="cls-1" d="M566.65,58.8h12a56.79,56.79,0,0,1,6.7.4,18,18,0,0,1,6,1.72,10.83,10.83,0,0,1,4.29,3.86,12.56,12.56,0,0,1,1.65,6.9,11.38,11.38,0,0,1-3.1,8.32,14.83,14.83,0,0,1-8.59,4l13.28,21.53H592l-12.68-21H572.2v21h-5.55Zm5.55,20.61h5q2.31,0,4.79-.13a16.38,16.38,0,0,0,4.56-.86,7.93,7.93,0,0,0,3.43-2.28,6.58,6.58,0,0,0,1.35-4.46,7.28,7.28,0,0,0-1-4,6.72,6.72,0,0,0-2.61-2.34,11.15,11.15,0,0,0-3.63-1.09A31.38,31.38,0,0,0,580,64H572.2Z" transform="translate(-44 -40)"/><path class="cls-1" d="M607,58.8h5.55v46.76H607Z" transform="translate(-44 -40)"/><path class="cls-1" d="M624.18,58.8h7l27.08,38.83h.13V58.8h5.55v46.76h-7L629.86,66.72h-.13v38.83h-5.55Z" transform="translate(-44 -40)"/><path class="cls-1" d="M690.75,58.8H696l19.88,46.76h-6.47l-4.75-11.49H681.24l-4.82,11.49h-6.27Zm2.51,7.13h-.13l-9.71,23h19.09Z" transform="translate(-44 -40)"/><path class="cls-1" d="M368.39,138.05h5.55v20.21h.79L396,138.05h8l-23.12,21.33,24.24,25.43H397L374.73,161h-.79v23.78h-5.55Z" transform="translate(-44 -40)"/><path class="cls-1" d="M431.73,186a25.38,25.38,0,0,1-9.81-1.85A23.56,23.56,0,0,1,414.2,179a23,23,0,0,1-5.09-7.79,27.4,27.4,0,0,1,0-19.61,23,23,0,0,1,5.09-7.79,23.58,23.58,0,0,1,7.73-5.12,26.93,26.93,0,0,1,19.62,0,23.57,23.57,0,0,1,7.73,5.12,23,23,0,0,1,5.08,7.79,27.38,27.38,0,0,1,0,19.61,23,23,0,0,1-5.08,7.79,23.56,23.56,0,0,1-7.73,5.12A25.38,25.38,0,0,1,431.73,186Zm0-5.15a18.18,18.18,0,0,0,7.5-1.52,17.68,17.68,0,0,0,5.84-4.16,19,19,0,0,0,3.8-6.17,21.8,21.8,0,0,0,0-15.12,19,19,0,0,0-3.8-6.18,17.7,17.7,0,0,0-5.84-4.16,19.26,19.26,0,0,0-15,0,17.7,17.7,0,0,0-5.84,4.16,19,19,0,0,0-3.8,6.18,21.79,21.79,0,0,0,0,15.12,19,19,0,0,0,3.8,6.17,17.68,17.68,0,0,0,5.84,4.16A18.17,18.17,0,0,0,431.73,180.85Z" transform="translate(-44 -40)"/><path class="cls-1" d="M465.08,138.05h7l27.08,38.83h.13V138.05h5.55v46.76h-7L470.76,146h-.13v38.83h-5.55Z" transform="translate(-44 -40)"/><path class="cls-1" d="M538.19,186a25.38,25.38,0,0,1-9.81-1.85,23.56,23.56,0,0,1-7.73-5.12,23,23,0,0,1-5.09-7.79,27.4,27.4,0,0,1,0-19.61,23,23,0,0,1,5.09-7.79,23.58,23.58,0,0,1,7.73-5.12,26.93,26.93,0,0,1,19.62,0,23.57,23.57,0,0,1,7.73,5.12,23,23,0,0,1,5.08,7.79,27.38,27.38,0,0,1,0,19.61,23,23,0,0,1-5.08,7.79,23.56,23.56,0,0,1-7.73,5.12A25.38,25.38,0,0,1,538.19,186Zm0-5.15a18.18,18.18,0,0,0,7.5-1.52,17.68,17.68,0,0,0,5.84-4.16,19,19,0,0,0,3.8-6.17,21.8,21.8,0,0,0,0-15.12,19,19,0,0,0-3.8-6.18,17.7,17.7,0,0,0-5.84-4.16,19.26,19.26,0,0,0-15,0,17.7,17.7,0,0,0-5.84,4.16,19,19,0,0,0-3.8,6.18,21.79,21.79,0,0,0,0,15.12,19,19,0,0,0,3.8,6.17,17.68,17.68,0,0,0,5.84,4.16A18.17,18.17,0,0,0,538.19,180.85Z" transform="translate(-44 -40)"/><path class="cls-1" d="M571.54,138.05h7l27.08,38.83h.13V138.05h5.55v46.76h-7L577.22,146h-.13v38.83h-5.55Z" transform="translate(-44 -40)"/><path class="cls-1" d="M644.66,186a25.38,25.38,0,0,1-9.81-1.85,23.56,23.56,0,0,1-7.73-5.12,23,23,0,0,1-5.09-7.79,27.4,27.4,0,0,1,0-19.61,23,23,0,0,1,5.09-7.79,23.58,23.58,0,0,1,7.73-5.12,26.93,26.93,0,0,1,19.62,0,23.57,23.57,0,0,1,7.73,5.12,23,23,0,0,1,5.08,7.79,27.38,27.38,0,0,1,0,19.61,23,23,0,0,1-5.08,7.79,23.56,23.56,0,0,1-7.73,5.12A25.38,25.38,0,0,1,644.66,186Zm0-5.15a18.18,18.18,0,0,0,7.5-1.52,17.68,17.68,0,0,0,5.84-4.16,19,19,0,0,0,3.8-6.17,21.8,21.8,0,0,0,0-15.12,19,19,0,0,0-3.8-6.18,17.7,17.7,0,0,0-5.84-4.16,19.26,19.26,0,0,0-15,0,17.7,17.7,0,0,0-5.84,4.16,19,19,0,0,0-3.8,6.18,21.79,21.79,0,0,0,0,15.12,19,19,0,0,0,3.8,6.17,17.68,17.68,0,0,0,5.84,4.16A18.17,18.17,0,0,0,644.66,180.85Z" transform="translate(-44 -40)"/><path class="cls-1" d="M671.6,138.05h6.27l14.4,38.44h.13l14.86-38.44h5.88l-18.29,46.76H689.5Z" transform="translate(-44 -40)"/><path class="cls-1" d="M730.51,138.05h5.22l19.88,46.76h-6.47l-4.75-11.49H721l-4.82,11.49h-6.27Zm2.51,7.13h-.13l-9.71,23h19.09Z" transform="translate(-44 -40)"/><polygon class="cls-1" points="0 0 178.41 0 144.43 33.98 0 33.98 0 0"/><polygon class="cls-1" points="0 165.66 178.41 165.66 144.43 131.68 0 131.68 0 165.66"/><polygon class="cls-1" points="53.37 67.97 53.37 101.95 157.49 101.93 233.9 165.66 284.88 165.66 191.43 82.83 287 0 236.03 0 157.44 67.97 53.37 67.97"/></svg>